<mxfile host="app.diagrams.net" modified="2023-06-09T08:34:04.112Z" agent="Mozilla/5.0 (Windows NT 10.0; Win64; x64) AppleWebKit/537.36 (KHTML, like Gecko) Chrome/112.0.0.0 Safari/537.36" version="21.2.9" etag="XGEJo6VGApmtFIh1JbL4" type="github">
  <diagram name="第 1 页" id="fyI0o6ksm3-mZdmoZtR1">
    <mxGraphModel>
      <root>
        <mxCell id="0" />
        <mxCell id="1" parent="0" />
      </root>
    </mxGraphModel>
  </diagram>
</mxfile>
